<svg width="64" height="64" viewBox="0 0 64 64" xmlns="http://www.w3.org/2000/svg">
  <defs>
    <linearGradient id="fominGradient" x1="0%" y1="0%" x2="100%" y2="100%">
      <stop offset="0%" style="stop-color:#667eea;stop-opacity:1" />
      <stop offset="100%" style="stop-color:#764ba2;stop-opacity:1" />
    </linearGradient>
  </defs>
  
  <!-- Background circle -->
  <circle cx="32" cy="32" r="30" fill="url(#fominGradient)" stroke="#fff" stroke-width="2"/>
  
  <!-- Letter "F" stylized -->
  <path d="M20 16 L20 48 L24 48 L24 34 L36 34 L36 30 L24 30 L24 20 L40 20 L40 16 Z" fill="#fff"/>
  
  <!-- Tools elements -->
  <!-- Gear/cog -->
  <g transform="translate(38, 38)">
    <circle cx="6" cy="6" r="8" fill="none" stroke="#fff" stroke-width="2"/>
    <circle cx="6" cy="6" r="4" fill="#fff"/>
    <rect x="5" y="-2" width="2" height="4" fill="#fff"/>
    <rect x="5" y="14" width="2" height="4" fill="#fff"/>
    <rect x="-2" y="5" width="4" height="2" fill="#fff"/>
    <rect x="14" y="5" width="4" height="2" fill="#fff"/>
  </g>
  
  <!-- Code brackets -->
  <path d="M12 24 L8 28 L12 32" stroke="#fff" stroke-width="2" fill="none" stroke-linecap="round"/>
  <path d="M16 40 L20 44 L16 48" stroke="#fff" stroke-width="2" fill="none" stroke-linecap="round"/>
</svg>