<svg width="96" height="96" viewBox="0 0 96 96" xmlns="http://www.w3.org/2000/svg">
  <defs>
    <linearGradient id="tabogaGradient" x1="0%" y1="0%" x2="100%" y2="100%">
      <stop offset="0%" style="stop-color:#667eea;stop-opacity:1" />
      <stop offset="100%" style="stop-color:#764ba2;stop-opacity:1" />
    </linearGradient>
  </defs>
  
  <!-- Background circle -->
  <circle cx="48" cy="48" r="44" fill="url(#tabogaGradient)" stroke="#fff" stroke-width="3"/>
  
  <!-- Letter "T" stylized - matching F's vertical stroke thickness -->
  <path d="M30 24 L66 24 L66 30 L51 30 L51 72 L45 72 L45 30 L30 30 Z" fill="#fff"/>
  
  <!-- Software elements -->
  <!-- Code brackets -->
  <path d="M18 36 L12 42 L18 48" stroke="#fff" stroke-width="3" fill="none" stroke-linecap="round" stroke-linejoin="round"/>
  <path d="M78 36 L84 42 L78 48" stroke="#fff" stroke-width="3" fill="none" stroke-linecap="round" stroke-linejoin="round"/>
  
  <!-- Binary code dots -->
  <circle cx="24" cy="56" r="2" fill="#fff" opacity="0.8"/>
  <circle cx="32" cy="56" r="2" fill="#fff" opacity="0.8"/>
  <circle cx="24" cy="64" r="2" fill="#fff" opacity="0.8"/>
  <circle cx="32" cy="64" r="2" fill="#fff" opacity="0.8"/>
  
  <circle cx="64" cy="56" r="2" fill="#fff" opacity="0.8"/>
  <circle cx="72" cy="56" r="2" fill="#fff" opacity="0.8"/>
  <circle cx="64" cy="64" r="2" fill="#fff" opacity="0.8"/>
  <circle cx="72" cy="64" r="2" fill="#fff" opacity="0.8"/>
  
  <!-- Legacy gear element -->
  <g transform="translate(35, 70)">
    <circle cx="13" cy="13" r="12" fill="none" stroke="#fff" stroke-width="2.5"/>
    <circle cx="13" cy="13" r="6" fill="#fff"/>
    <rect x="12" y="1" width="2" height="6" fill="#fff"/>
    <rect x="12" y="19" width="2" height="6" fill="#fff"/>
    <rect x="1" y="12" width="6" height="2" fill="#fff"/>
    <rect x="19" y="12" width="6" height="2" fill="#fff"/>
  </g>
</svg>