<svg width="48" height="48" viewBox="0 0 48 48" xmlns="http://www.w3.org/2000/svg">
  <defs>
    <linearGradient id="tblGradient" x1="0%" y1="0%" x2="100%" y2="100%">
      <stop offset="0%" style="stop-color:#2c3e50;stop-opacity:1" />
      <stop offset="100%" style="stop-color:#34495e;stop-opacity:1" />
    </linearGradient>
  </defs>
  
  <!-- Background circle -->
  <circle cx="24" cy="24" r="22" fill="url(#tblGradient)" stroke="#fff" stroke-width="2"/>
  
  <!-- Barcode base -->
  <rect x="12" y="16" width="24" height="16" fill="#fff" opacity="0.95"/>
  
  <!-- Barcode lines (Code 128 style) -->
  <rect x="14" y="18" width="1" height="12" fill="#2c3e50"/>
  <rect x="16" y="18" width="2" height="12" fill="#2c3e50"/>
  <rect x="19" y="18" width="1" height="12" fill="#2c3e50"/>
  <rect x="21" y="18" width="1" height="12" fill="#2c3e50"/>
  <rect x="23" y="18" width="3" height="12" fill="#2c3e50"/>
  <rect x="27" y="18" width="1" height="12" fill="#2c3e50"/>
  <rect x="29" y="18" width="2" height="12" fill="#2c3e50"/>
  <rect x="32" y="18" width="1" height="12" fill="#2c3e50"/>
  <rect x="34" y="18" width="1" height="12" fill="#2c3e50"/>
  
  <!-- Human readable text simulation -->
  <rect x="16" y="31" width="16" height="1" fill="#2c3e50" opacity="0.6"/>
  
  <!-- Scanner beam effect -->
  <path d="M8 12 L40 12" stroke="#e74c3c" stroke-width="2" opacity="0.8"/>
  <circle cx="8" cy="12" r="2" fill="#e74c3c" opacity="0.6"/>
</svg>