<svg width="48" height="48" viewBox="0 0 48 48" xmlns="http://www.w3.org/2000/svg">
  <defs>
    <linearGradient id="tifGradient" x1="0%" y1="0%" x2="100%" y2="100%">
      <stop offset="0%" style="stop-color:#27ae60;stop-opacity:1" />
      <stop offset="100%" style="stop-color:#3498db;stop-opacity:1" />
    </linearGradient>
  </defs>
  
  <!-- Background circle -->
  <circle cx="24" cy="24" r="22" fill="url(#tifGradient)" stroke="#fff" stroke-width="2"/>
  
  <!-- Filter funnel -->
  <path d="M12 12 L36 12 L30 20 L18 20 Z" fill="#fff" opacity="0.95"/>
  <rect x="18" y="20" width="12" height="8" fill="#fff" opacity="0.95"/>
  <rect x="20" y="28" width="8" height="6" fill="#fff" opacity="0.95"/>
  <rect x="22" y="34" width="4" height="4" fill="#fff" opacity="0.95"/>
  
  <!-- Data dots/particles being filtered -->
  <circle cx="15" cy="8" r="1.5" fill="#fff" opacity="0.8"/>
  <circle cx="20" cy="6" r="1.5" fill="#fff" opacity="0.8"/>
  <circle cx="25" cy="8" r="1.5" fill="#fff" opacity="0.8"/>
  <circle cx="30" cy="7" r="1.5" fill="#fff" opacity="0.8"/>
  <circle cx="33" cy="9" r="1.5" fill="#fff" opacity="0.8"/>
  
  <!-- Filtered results -->
  <circle cx="22" cy="40" r="1" fill="#fff" opacity="0.9"/>
  <circle cx="26" cy="40" r="1" fill="#fff" opacity="0.9"/>
  
  <!-- Filter lines/grid -->
  <line x1="19" y1="22" x2="29" y2="22" stroke="#27ae60" stroke-width="0.5" opacity="0.6"/>
  <line x1="19" y1="25" x2="29" y2="25" stroke="#27ae60" stroke-width="0.5" opacity="0.6"/>
  <line x1="21" y1="30" x2="27" y2="30" stroke="#3498db" stroke-width="0.5" opacity="0.6"/>
  <line x1="21" y1="32" x2="27" y2="32" stroke="#3498db" stroke-width="0.5" opacity="0.6"/>
  
  <!-- Interactive cursor/pointer -->
  <g transform="translate(32, 16)">
    <path d="M0 0 L6 4 L3 5 L2 8 Z" fill="#fff" stroke="#27ae60" stroke-width="0.5"/>
  </g>
</svg>