<svg width="48" height="48" viewBox="0 0 48 48" xmlns="http://www.w3.org/2000/svg">
  <defs>
    <linearGradient id="trdeGradient" x1="0%" y1="0%" x2="100%" y2="100%">
      <stop offset="0%" style="stop-color:#9b59b6;stop-opacity:1" />
      <stop offset="100%" style="stop-color:#8e44ad;stop-opacity:1" />
    </linearGradient>
  </defs>
  
  <!-- Background circle -->
  <circle cx="24" cy="24" r="22" fill="url(#trdeGradient)" stroke="#fff" stroke-width="2"/>
  
  <!-- Report document -->
  <rect x="10" y="10" width="18" height="24" rx="2" fill="#fff" opacity="0.95"/>
  
  <!-- Report content -->
  <rect x="12" y="12" width="14" height="3" fill="#9b59b6" opacity="0.8"/>
  <line x1="12" y1="18" x2="24" y2="18" stroke="#9b59b6" stroke-width="1" opacity="0.6"/>
  <line x1="12" y1="21" x2="20" y2="21" stroke="#9b59b6" stroke-width="1" opacity="0.6"/>
  <line x1="12" y1="24" x2="24" y2="24" stroke="#9b59b6" stroke-width="1" opacity="0.6"/>
  <line x1="12" y1="27" x2="18" y2="27" stroke="#9b59b6" stroke-width="1" opacity="0.6"/>
  
  <!-- Export arrow -->
  <path d="M28 20 L36 20" stroke="#fff" stroke-width="2.5" stroke-linecap="round"/>
  <path d="M32 16 L36 20 L32 24" stroke="#fff" stroke-width="2.5" fill="none" stroke-linecap="round" stroke-linejoin="round"/>
  
  <!-- Target formats (multiple file types) -->
  <g transform="translate(34, 8)">
    <rect x="0" y="0" width="8" height="6" rx="1" fill="#00b894" opacity="0.9"/>
    <text x="4" y="4" text-anchor="middle" fill="#fff" font-size="3" font-family="Arial">XLS</text>
  </g>
  
  <g transform="translate(34, 16)">
    <rect x="0" y="0" width="8" height="6" rx="1" fill="#e67e22" opacity="0.9"/>
    <text x="4" y="4" text-anchor="middle" fill="#fff" font-size="3" font-family="Arial">CSV</text>
  </g>
  
  <g transform="translate(34, 24)">
    <rect x="0" y="0" width="8" height="6" rx="1" fill="#3498db" opacity="0.9"/>
    <text x="4" y="4" text-anchor="middle" fill="#fff" font-size="3" font-family="Arial">PDF</text>
  </g>
</svg>