<svg width="48" height="48" viewBox="0 0 48 48" xmlns="http://www.w3.org/2000/svg">
  <defs>
    <linearGradient id="frbGradient" x1="0%" y1="0%" x2="100%" y2="100%">
      <stop offset="0%" style="stop-color:#2c3e50;stop-opacity:1" />
      <stop offset="100%" style="stop-color:#e67e22;stop-opacity:1" />
    </linearGradient>
  </defs>
  
  <!-- Background circle -->
  <circle cx="24" cy="24" r="22" fill="url(#frbGradient)" stroke="#fff" stroke-width="2"/>
  
  <!-- Document base -->
  <rect x="12" y="10" width="18" height="24" rx="2" fill="#fff" opacity="0.95"/>
  
  <!-- Document lines (report content) -->
  <line x1="15" y1="15" x2="27" y2="15" stroke="#2c3e50" stroke-width="1.5" opacity="0.7"/>
  <line x1="15" y1="18" x2="24" y2="18" stroke="#2c3e50" stroke-width="1" opacity="0.6"/>
  <line x1="15" y1="21" x2="27" y2="21" stroke="#2c3e50" stroke-width="1" opacity="0.6"/>
  <line x1="15" y1="24" x2="21" y2="24" stroke="#2c3e50" stroke-width="1" opacity="0.6"/>
  
  <!-- Chart/graph element -->
  <rect x="16" y="26" width="2" height="4" fill="#e67e22"/>
  <rect x="19" y="24" width="2" height="6" fill="#e67e22"/>
  <rect x="22" y="22" width="2" height="8" fill="#e67e22"/>
  <rect x="25" y="25" width="2" height="5" fill="#e67e22"/>
  
  <!-- Builder tool icon (wrench overlay) -->
  <g transform="translate(28, 8)">
    <circle cx="6" cy="6" r="6" fill="#e67e22" stroke="#fff" stroke-width="1"/>
    <path d="M3 6 L9 6 M6 3 L6 9" stroke="#fff" stroke-width="1.5" stroke-linecap="round"/>
    <circle cx="6" cy="6" r="2" fill="none" stroke="#fff" stroke-width="1"/>
  </g>
</svg>